# xmcd
#
# Track frame offsets:
#	150
#	16203
#	30260
#	57531
#	96443
#	129301
#	145470
#	174186
#	198946
#	232888
#	250438
#
# Disc length: 3529 seconds
#
# Revision: 1
# Processed by: cddbd v1.5.2PL0 Copyright (c) Steve Scherf et al.
# Submitted via: audiograbber 1.83.01
#
DISCID=8d0dc70b
DTITLE=Albert Cummings Live - Feel So Good
DYEAR=2009
DGENRE=Blues
TTITLE0=Party Right Here
TTITLE1=Why Me
TTITLE2=Sleep
TTITLE3=Hoochie Coochie Man\\Dixie Chicken Medley
TTITLE4=Barrel House Blues
TTITLE5=Tell It Like It Is
TTITLE6=Rock Me Baby
TTITLE7=Your Own Way
TTITLE8=Together As One
TTITLE9=Blues Makes Me Feel So Good
TTITLE10=Rock And Roll
EXTD=
EXTT0=
EXTT1=
EXTT2=
EXTT3=
EXTT4=
EXTT5=
EXTT6=
EXTT7=
EXTT8=
EXTT9=
EXTT10=
PLAYORDER=
